<svg width="70" height="36" viewBox="0 0 70 36" fill="none" xmlns="http://www.w3.org/2000/svg">
<path d="M1.85261 0.0013266C1.59767 0.00872553 1.34757 0.0472796 1.11659 0.114786C0.885617 0.182293 0.67829 0.277429 0.506452 0.394764C0.334615 0.512098 0.201632 0.64933 0.1151 0.798625C0.0285679 0.947919 -0.00981879 1.10635 0.00213147 1.26487C0.0140817 1.42339 0.0761351 1.5789 0.184748 1.7225C0.293361 1.86611 0.446406 1.995 0.635142 2.10183C0.823878 2.20865 1.04461 2.29131 1.28473 2.34509C1.52485 2.39887 1.77965 2.4227 2.03459 2.41524H68.0313C68.2885 2.4175 68.5439 2.38795 68.7826 2.32831C69.0212 2.26867 69.2385 2.18013 69.4217 2.06783C69.6048 1.95553 69.7503 1.82171 69.8496 1.67415C69.9489 1.52659 70 1.36824 70 1.20828C70 1.04833 69.9489 0.889974 69.8496 0.742415C69.7503 0.594855 69.6048 0.461038 69.4217 0.348737C69.2385 0.236436 69.0212 0.147893 68.7826 0.0882523C68.5439 0.028612 68.2885 -0.000935296 68.0313 0.0013266H2.03459C1.97396 -0.0004422 1.91324 -0.0004422 1.85261 0.0013266ZM1.85261 16.2952C1.59767 16.3026 1.34757 16.3412 1.11659 16.4087C0.885617 16.4762 0.67829 16.5713 0.506452 16.6887C0.334615 16.806 0.201632 16.9432 0.1151 17.0925C0.0285679 17.2418 -0.00981879 17.4003 0.00213147 17.5588C0.0140817 17.7173 0.0761351 17.8728 0.184748 18.0164C0.293361 18.16 0.446406 18.2889 0.635142 18.3957C0.823878 18.5026 1.04461 18.5852 1.28473 18.639C1.52485 18.6928 1.77965 18.7166 2.03459 18.7092H68.0313C68.2885 18.7114 68.5439 18.6819 68.7826 18.6222C69.0212 18.5626 69.2385 18.474 69.4217 18.3617C69.6048 18.2494 69.7503 18.1156 69.8496 17.9681C69.9489 17.8205 70 17.6622 70 17.5022C70 17.3422 69.9489 17.1839 69.8496 17.0363C69.7503 16.8888 69.6048 16.755 69.4217 16.6427C69.2385 16.5304 69.0212 16.4418 68.7826 16.3822C68.5439 16.3225 68.2885 16.293 68.0313 16.2952H2.03459C1.97396 16.2935 1.91324 16.2935 1.85261 16.2952ZM1.85261 32.5892C1.59767 32.5966 1.34757 32.6351 1.11659 32.7026C0.885617 32.7701 0.67829 32.8653 0.506452 32.9826C0.334615 33.0999 0.201632 33.2372 0.1151 33.3865C0.0285679 33.5358 -0.00981879 33.6942 0.00213147 33.8527C0.0140817 34.0112 0.0761351 34.1667 0.184748 34.3103C0.293361 34.4539 0.446406 34.5828 0.635142 34.6897C0.823878 34.7965 1.04461 34.8792 1.28473 34.9329C1.52485 34.9867 1.77965 35.0105 2.03459 35.0031H68.0313C68.2885 35.0053 68.5439 34.9758 68.7826 34.9161C69.0212 34.8565 69.2385 34.768 69.4217 34.6557C69.6048 34.5434 69.7503 34.4095 69.8496 34.262C69.9489 34.1144 70 33.9561 70 33.7961C70 33.6362 69.9489 33.4778 69.8496 33.3302C69.7503 33.1827 69.6048 33.0489 69.4217 32.9366C69.2385 32.8243 69.0212 32.7357 68.7826 32.6761C68.5439 32.6164 68.2885 32.5869 68.0313 32.5892H2.03459C1.97396 32.5874 1.91324 32.5874 1.85261 32.5892Z" fill="black"/>
</svg>
