<svg width="29" height="23" viewBox="0 0 29 23" fill="none" xmlns="http://www.w3.org/2000/svg">
<path d="M26.9146 5.44678H28.0848V22.9999H26.9146V5.44678Z" fill="black"/>
<path d="M27.4994 14.8079H20.0371L18.7451 10.2879L19.8708 9.9668L20.9194 13.6379H27.4994L27.4994 14.8079Z" fill="black"/>
<path d="M9.05708 15.1367L4.99121 5.42136L17.9452 0L22.0111 9.71537L9.05708 15.1367ZM6.52224 6.04888L9.68422 13.6057L20.4797 9.0884L17.3177 1.53158L6.52224 6.04888Z" fill="black"/>
<path d="M3.74788 16.6751C3.70841 16.6751 3.66894 16.6711 3.62967 16.663C3.44057 16.6242 3.28289 16.4939 3.20797 16.3156L0.0451269 8.75931C-0.0291537 8.58167 -0.0108986 8.37772 0.0937272 8.216C0.198781 8.05365 0.37705 7.95369 0.570178 7.94859L6.84643 7.78857C7.08073 7.79367 7.30803 7.92504 7.4012 8.14788L8.80678 11.5064C8.89995 11.7286 8.84668 11.9858 8.67308 12.1532L4.15409 16.5111C4.04395 16.6175 3.89772 16.6752 3.7481 16.6752L3.74788 16.6751ZM1.45541 9.09709L3.9576 15.0756L7.57269 11.5891L6.47609 8.96936L1.45541 9.09709Z" fill="black"/>
</svg>
