<svg width="27" height="27" viewBox="0 0 27 27" fill="none" xmlns="http://www.w3.org/2000/svg">
<path d="M26.3993 1.20013C26.0693 1.20013 25.7993 1.47007 25.7993 1.80006V4.79997C25.7993 5.12998 25.5294 5.3999 25.1994 5.3999H23.9995V4.79997C23.9995 3.81 23.1895 2.99992 22.1995 2.99992H21.5996V2.09989C21.5996 0.92992 20.6696 0 19.4997 0C18.8997 0 18.3898 0.24002 17.9997 0.63009C17.6094 0.240245 17.0995 0.000214264 16.4995 0.000214264C15.8996 0.000214264 15.3896 0.240234 14.9996 0.630304C14.6095 0.240251 14.0996 0.000214264 13.4996 0.000214264C12.8997 0.000214264 12.3897 0.240234 11.9997 0.630304C11.6096 0.240251 11.0996 0.000214264 10.4997 0.000214264C9.89978 0.000214264 9.38979 0.240234 8.99975 0.630304C8.6097 0.240251 8.09972 0.000214264 7.49979 0.000214264C6.89986 0.000214264 6.38988 0.240234 5.99983 0.630304C5.60978 0.240251 5.0998 0.000214264 4.49987 0.000214264C3.32991 0.000214264 2.39999 0.930135 2.39999 2.1001V3.00013H1.80006C0.810085 3.00013 0 3.81016 0 4.80019V7.20018C0 8.19015 0.810031 9.00023 1.80006 9.00023H2.39999V18H1.80006C0.810085 18 0 18.81 0 19.8V22.2C0 23.19 0.810031 24.0001 1.80006 24.0001H2.39999V24.9001C2.39999 26.0701 3.32991 27 4.49987 27C5.0998 27 5.60979 26.76 5.99983 26.3699C6.38989 26.76 6.89986 27 7.49979 27C8.09972 27 8.60971 26.76 8.99975 26.3699C9.3898 26.76 9.89978 27 10.4997 27C11.0996 27 11.6096 26.76 11.9997 26.3699C12.3897 26.76 12.8997 27 13.4996 27C14.0996 27 14.6095 26.76 14.9996 26.3699C15.3896 26.76 15.8996 27 16.4995 27C17.0995 27 17.6095 26.76 17.9995 26.3699C18.3896 26.76 18.8995 27 19.4995 27C20.6694 27 21.5993 26.0701 21.5993 24.9001V24.0001H22.1993C23.1892 24.0001 23.9993 23.1901 23.9993 22.2V19.8C23.9993 18.8101 23.1893 18 22.1993 18H21.5993V9.00023H22.1993C23.1892 9.00023 23.9993 8.1902 23.9993 7.20018V6.60025H25.1992C26.1892 6.60025 26.9992 5.79021 26.9992 4.80019V1.80049C26.9992 1.47048 26.7293 1.20034 26.3993 1.20034L26.3993 1.20013ZM2.39993 22.7995H1.8C1.47 22.7995 1.20007 22.5296 1.20007 22.1996V19.7996C1.20007 19.4696 1.47002 19.1997 1.8 19.1997H2.39993V22.7995ZM2.39993 7.79994H1.8C1.47 7.79994 1.20007 7.53 1.20007 7.20002V4.80003C1.20007 4.47003 1.47002 4.2001 1.8 4.2001H2.39993V7.79994ZM5.39985 24.8995C5.39985 25.3795 5.0098 25.7995 4.49982 25.7995C3.98985 25.7995 3.59979 25.3795 3.59979 24.8995V2.1001C3.59979 1.59014 3.98985 1.20007 4.49982 1.20007C5.0098 1.20007 5.39985 1.59013 5.39985 2.1001V24.8995ZM8.39977 24.8995C8.39977 25.3795 8.00971 25.7995 7.49974 25.7995C6.98976 25.7995 6.59971 25.3795 6.59971 24.8995V2.1001C6.59971 1.59014 6.98976 1.20007 7.49974 1.20007C8.00971 1.20007 8.39977 1.59013 8.39977 2.1001V24.8995ZM11.3997 24.8995C11.3997 25.3795 11.0096 25.7995 10.4997 25.7995C9.98968 25.7995 9.59963 25.3795 9.59963 24.8995V2.1001C9.59963 1.59014 9.98968 1.20007 10.4997 1.20007C11.0096 1.20007 11.3997 1.59013 11.3997 2.1001V24.8995ZM14.3996 24.8995C14.3996 25.3795 14.0095 25.7995 13.4996 25.7995C12.9896 25.7995 12.5995 25.3795 12.5995 24.8995V2.1001C12.5995 1.59014 12.9896 1.20007 13.4996 1.20007C14.0095 1.20007 14.3996 1.59013 14.3996 2.1001V24.8995ZM17.3995 24.8995C17.3995 25.3795 17.0095 25.7995 16.4995 25.7995C15.9895 25.7995 15.5995 25.3795 15.5995 24.8995V2.1001C15.5995 1.59014 15.9895 1.20007 16.4995 1.20007C17.0095 1.20007 17.3995 1.59013 17.3995 2.1001V24.8995ZM20.3994 24.8995C20.3994 25.3795 20.0094 25.7995 19.4994 25.7995C18.9894 25.7995 18.5994 25.3795 18.5994 24.8995V2.1001C18.5994 1.59014 18.9894 1.20007 19.4994 1.20007C20.0094 1.20007 20.3994 1.59013 20.3994 2.1001V24.8995ZM22.1993 19.1996C22.5293 19.1996 22.7992 19.4696 22.7992 19.7996V22.1995C22.7992 22.5295 22.5293 22.7995 22.1993 22.7995H21.5993V19.1996H22.1993ZM22.7994 7.19996C22.7994 7.52996 22.5295 7.79989 22.1995 7.79989H21.5996L21.5993 4.20004H22.1993C22.5293 4.20004 22.7992 4.46999 22.7992 4.79997L22.7994 7.19996Z" fill="black"/>
</svg>
