<svg width="28" height="31" viewBox="0 0 28 31" fill="none" xmlns="http://www.w3.org/2000/svg">
<path d="M21.7185 11.5048L26.6236 13.5631C26.7168 13.6027 26.8139 13.6209 26.9092 13.6209C27.1983 13.6209 27.4736 13.4502 27.592 13.167C27.7503 12.7901 27.5734 12.3565 27.1959 12.1986L23.2672 10.5498L27.0957 8.18968C27.4436 7.97459 27.552 7.5193 27.3373 7.17134C27.1222 6.82307 26.6662 6.71604 26.319 6.92975L22.6621 9.18387L23.2127 5.25418C23.2695 4.84946 22.9873 4.47574 22.5826 4.41895C22.1807 4.36423 21.8035 4.64436 21.7474 5.04906L21.0261 10.1919L14.7558 14.0569L14.7562 6.88744L18.9502 3.67796C19.2747 3.42915 19.3366 2.9649 19.0882 2.64041C18.839 2.31486 18.3748 2.25394 18.0506 2.50241L14.7555 5.02286V0.963042C14.7555 0.55455 14.4241 0.223145 14.0156 0.223145C13.6071 0.223145 13.2757 0.55455 13.2757 0.963042V5.01114L10.0445 2.5055C9.72244 2.25496 9.25716 2.31312 9.00665 2.6373C8.75611 2.96011 8.81462 3.42504 9.13845 3.67521L13.2764 6.88468V14.0565L6.61562 9.95091L5.90256 4.86455C5.84646 4.4595 5.47033 4.17696 5.06733 4.23444C4.66262 4.29122 4.38008 4.6653 4.43721 5.06967L4.98027 8.94263L1.71476 6.92972C1.36752 6.71601 0.911191 6.82304 0.696413 7.17131C0.481669 7.51923 0.59042 7.97488 0.938001 8.18966L4.4331 10.3443L0.454509 12.0144C0.0769835 12.1724 -0.0999043 12.606 0.0584024 12.9828C0.176791 13.266 0.451751 13.4367 0.741176 13.4367C0.836501 13.4367 0.933552 13.4185 1.02681 13.3789L5.98208 11.2993L12.6068 15.3822L5.92455 19.5012L1.00814 17.5909C0.626831 17.4419 0.198375 17.6318 0.0504025 18.0128C-0.0975789 18.3931 0.0913556 18.8226 0.472322 18.9705L4.34458 20.4751L0.937931 22.5754C0.590007 22.7905 0.481599 23.2458 0.696343 23.5938C0.836404 23.8205 1.07868 23.9455 1.3268 23.9455C1.45964 23.9455 1.59385 23.91 1.71465 23.8353L4.85047 21.902L4.31808 25.6999C4.2613 26.1046 4.5435 26.4783 4.9482 26.5351C4.98261 26.5399 5.01772 26.5427 5.05179 26.5427C5.41486 26.5427 5.73182 26.2753 5.78343 25.9053L6.48651 20.8936L13.2767 16.7078V23.9213L9.23065 27.1917C8.913 27.4488 8.86345 27.9151 9.12018 28.2327C9.37726 28.5503 9.84253 28.5992 10.1612 28.3431L13.2763 25.8251V29.4832C13.2763 29.8917 13.6077 30.2231 14.0162 30.2231C14.4247 30.2231 14.7561 29.8917 14.7561 29.4832V25.9056L17.9115 28.3527C18.046 28.4574 18.2061 28.5076 18.3644 28.5076C18.585 28.5076 18.8038 28.4095 18.9501 28.2209C19.2006 27.8981 19.1421 27.4332 18.8183 27.183L14.7564 24.0324L14.7571 16.708L21.0628 20.5951L21.8078 25.9055C21.8598 26.2755 22.1764 26.5429 22.5395 26.5429C22.5736 26.5429 22.6087 26.5404 22.6431 26.5353C23.0478 26.4785 23.3303 26.1044 23.2732 25.7001L22.6988 21.6031L26.3196 23.8351C26.4403 23.9091 26.5752 23.9453 26.7074 23.9453C26.9555 23.9453 27.1978 23.8204 27.3379 23.5936C27.5526 23.2456 27.4438 22.79 27.0963 22.5752L23.5179 20.3693L27.119 18.97C27.5 18.8213 27.6889 18.3929 27.5409 18.0123C27.3919 17.6313 26.9617 17.442 26.5832 17.5903L21.9383 19.395L15.4268 15.3816L21.7185 11.5048Z" fill="black"/>
</svg>
