<svg width="33" height="28" viewBox="0 0 33 28" fill="none" xmlns="http://www.w3.org/2000/svg">
<path d="M3.8006 8.0773H3.76869C3.19159 8.0773 2.65829 8.38506 2.36974 8.88482C2.08118 9.38485 2.08118 10.0006 2.36974 10.5004C2.65829 11.0002 3.19158 11.3079 3.76869 11.3079V23.1541C3.77031 24.4389 4.28143 25.6707 5.1898 26.5791C6.09818 27.4878 7.33001 27.9989 8.61488 28.0002H23.692C24.9769 27.9989 26.2087 27.4878 27.1171 26.5794C28.0258 25.6708 28.5366 24.4389 28.5382 23.1541V11.3079C29.1153 11.3079 29.6486 11.0002 29.9372 10.5004C30.2257 10.0006 30.2257 9.38487 29.9372 8.88482C29.6486 8.38505 29.1153 8.0773 28.5382 8.0773H28.5063C28.3727 6.89331 27.8083 5.79994 26.9205 5.00545C26.0324 4.21116 24.8833 3.77119 23.6921 3.76953H8.61488C7.42362 3.77115 6.27452 4.21115 5.3867 5.00565C4.4986 5.79994 3.93422 6.89338 3.8006 8.0773ZM27.4611 23.1545C27.46 24.1538 27.0624 25.1118 26.3558 25.8183C25.6491 26.5249 24.6913 26.9224 23.692 26.9238H8.6148C7.61552 26.9225 6.65764 26.5252 5.95099 25.8186C5.24435 25.1119 4.84683 24.1538 4.84572 23.1545V11.3084H27.4608L27.4611 23.1545ZM29.0766 9.69247C29.0764 9.98968 28.8354 10.2306 28.5382 10.2309H3.76866C3.47145 10.2309 3.23023 9.98994 3.23023 9.69247C3.23023 9.39499 3.47146 9.15404 3.76866 9.15404H28.5382C28.8354 9.15431 29.0764 9.39526 29.0766 9.69247ZM27.4226 8.07717H4.88442C5.01504 7.18041 5.46369 6.36072 6.14872 5.76768C6.83373 5.17462 7.70912 4.84739 8.61508 4.84628H23.6922C24.5982 4.84737 25.4736 5.17432 26.1586 5.76768C26.8436 6.36074 27.2923 7.18041 27.4229 8.07717H27.4226Z" fill="black"/>
<path d="M17.2305 3.23088C17.8076 3.23088 18.3409 2.92286 18.6295 2.42309C18.918 1.92333 18.918 1.30757 18.6295 0.807789C18.3409 0.30801 17.8076 0 17.2305 0H15.0768C14.4997 0 13.9664 0.308023 13.6778 0.807789C13.3893 1.30756 13.3893 1.92331 13.6778 2.42309C13.9664 2.92287 14.4997 3.23088 15.0768 3.23088H17.2305ZM14.5383 1.61531C14.5386 1.3181 14.7795 1.07715 15.0767 1.07688H17.2305C17.5279 1.07688 17.7689 1.31811 17.7689 1.61531C17.7689 1.91279 17.5279 2.15401 17.2305 2.15401H15.0767C14.7795 2.15347 14.5386 1.91278 14.5383 1.61531Z" fill="black"/>
<path d="M29.0771 13.4611V14.538C29.0771 15.1151 29.3849 15.6484 29.8847 15.9369C30.3844 16.2255 31.0005 16.2255 31.5002 15.9369C32 15.6484 32.3078 15.1151 32.3078 14.538V13.4611C32.3078 12.884 32 12.3507 31.5002 12.0621C31.0005 11.7736 30.3844 11.7736 29.8847 12.0621C29.3849 12.3507 29.0771 12.884 29.0771 13.4611ZM30.154 13.4611C30.154 13.1636 30.395 12.9226 30.6925 12.9226C30.9899 12.9226 31.2309 13.1636 31.2309 13.4611V14.538C31.2309 14.8354 30.9899 15.0764 30.6925 15.0764C30.395 15.0764 30.154 14.8354 30.154 14.538V13.4611Z" fill="black"/>
<path d="M0 13.4611V14.538C0 15.1151 0.307754 15.6484 0.807513 15.9369C1.30727 16.2255 1.92331 16.2255 2.42309 15.9369C2.92287 15.6484 3.2306 15.1151 3.2306 14.538V13.4611C3.2306 12.884 2.92285 12.3507 2.42309 12.0621C1.92333 11.7736 1.30729 11.7736 0.807513 12.0621C0.307733 12.3507 0 12.884 0 13.4611ZM2.15371 13.4611V14.538C2.15371 14.8354 1.91275 15.0764 1.61528 15.0764C1.31781 15.0764 1.07685 14.8354 1.07685 14.538V13.4611C1.07685 13.1636 1.31781 12.9226 1.61528 12.9226C1.91275 12.9226 2.15371 13.1636 2.15371 13.4611Z" fill="black"/>
<path d="M5.92276 17.2308C6.06555 17.2308 6.20266 17.174 6.30353 17.0731C6.4044 16.972 6.46119 16.8351 6.46119 16.6923V12.9231H10.2305C10.5277 12.9231 10.7689 12.6818 10.7689 12.3846C10.7689 12.0871 10.5277 11.8462 10.2305 11.8462H5.92271C5.77992 11.8459 5.64281 11.9027 5.54194 12.0039C5.4408 12.1047 5.38428 12.2418 5.38428 12.3846V16.6924C5.38428 16.8352 5.4408 16.972 5.54194 17.0732C5.64281 17.174 5.77997 17.2308 5.92276 17.2308Z" fill="black"/>
<path d="M11.846 12.9235H14C14.2972 12.9235 14.5385 12.6823 14.5385 12.3851C14.5385 12.0876 14.2972 11.8467 14 11.8467H11.846C11.5486 11.8467 11.3076 12.0876 11.3076 12.3851C11.3076 12.6823 11.5486 12.9235 11.846 12.9235Z" fill="black"/>
<path d="M16.1537 12.9235H16.6921C16.9896 12.9235 17.2305 12.6823 17.2305 12.3851C17.2305 12.0876 16.9896 11.8467 16.6921 11.8467H16.1537C15.8562 11.8467 15.6152 12.0876 15.6152 12.3851C15.6152 12.6823 15.8562 12.9235 16.1537 12.9235Z" fill="black"/>
</svg>
