<svg width="94" height="67" viewBox="0 0 94 67" fill="none" xmlns="http://www.w3.org/2000/svg">
<path d="M32.5638 52.455C32.3418 52.455 32.1198 52.41 31.9098 52.321L1.00878 39.098C0.480781 38.87 0.105781 38.387 0.0187812 37.819C-0.0672188 37.252 0.145781 36.676 0.582781 36.303L7.05978 30.771C7.45178 30.437 7.97578 30.304 8.48078 30.409L29.6518 34.852L40.8278 27.299L5.62178 22.618C4.95478 22.53 4.40778 22.048 4.23478 21.398C4.06178 20.748 4.29778 20.058 4.83278 19.649L13.7568 12.837C14.0468 12.616 14.4008 12.496 14.7658 12.496H14.7678L64.0368 12.556L78.5798 2.211C78.6098 2.19 78.6398 2.17 78.6698 2.152C80.9798 0.724 83.2448 0 85.4048 0C88.6488 0 91.3928 1.696 92.7438 4.535C94.7928 8.839 93.4198 12.868 88.8788 15.88L33.4748 52.184C33.2008 52.362 32.8828 52.455 32.5638 52.455ZM4.77778 37.092L32.3978 48.912L87.0478 13.102C91.1958 10.349 90.5718 7.708 89.7398 5.961C88.9418 4.284 87.3618 3.322 85.4028 3.322C83.9048 3.322 82.1968 3.884 80.4608 4.949L65.5298 15.572C65.2488 15.772 64.9118 15.88 64.5658 15.88H64.5638L15.3258 15.82L10.0448 19.852L45.6018 24.579C46.2868 24.67 46.8438 25.174 47.0008 25.846C47.1578 26.518 46.8848 27.217 46.3128 27.604L30.9308 37.999C30.5568 38.251 30.0978 38.343 29.6588 38.249L8.59878 33.831L4.77778 37.092Z" fill="black"/>
<path d="M67.0077 66.4749H4.41373C3.49573 66.4749 2.75073 65.7299 2.75073 64.8129C2.75073 63.8939 3.49473 63.1489 4.41373 63.1489H67.0077C67.9257 63.1489 68.6697 63.8939 68.6697 64.8129C68.6697 65.7289 67.9257 66.4749 67.0077 66.4749Z" fill="black"/>
</svg>
