<svg width="25" height="25" viewBox="0 0 25 25" fill="none" xmlns="http://www.w3.org/2000/svg">
<path d="M24.569 0H0.431035C0.193005 0 0 0.193005 0 0.431035V3.87931C0 3.99361 0.0454128 4.1033 0.126232 4.18411C0.20705 4.26493 0.316734 4.31035 0.431035 4.31035H3.44828V7.47862C3.44885 8.0099 3.66033 8.51946 4.03596 8.89508C4.41159 9.27069 4.92113 9.48217 5.45242 9.48276H9.9138V12.069H8.18966C8.02648 12.069 7.87716 12.1611 7.80404 12.3072L6.94197 14.0313C6.87712 14.1651 6.8852 14.3229 6.96333 14.4493C7.04145 14.5757 7.17884 14.6534 7.32759 14.6552H17.6724C17.8212 14.6534 17.9586 14.5757 18.0367 14.4493C18.1148 14.3229 18.1229 14.1651 18.058 14.0313L17.196 12.3072C17.1228 12.1611 16.9735 12.069 16.8103 12.069H15.0862V9.48276H19.5476C20.0789 9.48218 20.5884 9.27071 20.964 8.89508C21.3397 8.51945 21.5511 8.0099 21.5517 7.47862V4.31035H24.569C24.6833 4.31035 24.793 4.26493 24.8738 4.18411C24.9546 4.1033 25 3.99361 25 3.87931V0.431035C25 0.316734 24.9546 0.207049 24.8738 0.126232C24.793 0.0454138 24.6833 0 24.569 0ZM16.9749 13.7931H8.02513L8.45616 12.931H16.5438L16.9749 13.7931ZM14.2241 12.069H10.7759V9.48276H14.2241V12.069ZM20.6897 7.47862C20.6893 7.7815 20.5688 8.07168 20.3548 8.28586C20.1407 8.49985 19.8505 8.6203 19.5476 8.62069H5.45252C5.14964 8.6203 4.85946 8.49985 4.64528 8.28586C4.4313 8.07169 4.31084 7.78153 4.31045 7.47862V4.31035H20.6898L20.6897 7.47862ZM24.1379 3.44828H0.862069V0.862069H24.1379V3.44828Z" fill="black"/>
<path d="M5.6034 7.75857H19.3965C19.5108 7.75857 19.6205 7.71316 19.7013 7.63234C19.7821 7.55152 19.8275 7.44184 19.8275 7.32754V5.6034C19.8275 5.4891 19.7821 5.37941 19.7013 5.29859C19.6205 5.21778 19.5108 5.17236 19.3965 5.17236H5.6034C5.36537 5.17236 5.17236 5.36537 5.17236 5.6034V7.32754C5.17236 7.44184 5.21778 7.55152 5.29859 7.63234C5.37941 7.71316 5.4891 7.75857 5.6034 7.75857ZM6.03443 6.03443H18.9655V6.8965H6.03443V6.03443Z" fill="black"/>
<path d="M12.0688 24.5687C12.0688 24.8067 12.2619 24.9997 12.4999 24.9997C12.7379 24.9997 12.9309 24.8067 12.9309 24.5687V23.4911C12.9309 23.2531 12.7379 23.0601 12.4999 23.0601C12.2619 23.0601 12.0688 23.2531 12.0688 23.4911V24.5687Z" fill="black"/>
<path d="M12.0688 21.3367C12.0688 21.5747 12.2619 21.7677 12.4999 21.7677C12.7379 21.7677 12.9309 21.5747 12.9309 21.3367V19.1815C12.9309 18.9435 12.7379 18.7505 12.4999 18.7505C12.2619 18.7505 12.0688 18.9435 12.0688 19.1815V21.3367Z" fill="black"/>
<path d="M12.4999 17.4567C12.6142 17.4567 12.7239 17.4113 12.8047 17.3305C12.8855 17.2497 12.9309 17.14 12.9309 17.0257V15.9481C12.9309 15.7101 12.7379 15.5171 12.4999 15.5171C12.2619 15.5171 12.0688 15.7101 12.0688 15.9481V17.0257C12.0688 17.14 12.1143 17.2497 12.1951 17.3305C12.2759 17.4113 12.3856 17.4567 12.4999 17.4567Z" fill="black"/>
<path d="M16.5864 17.2485C16.7478 17.2462 16.8947 17.1546 16.9676 17.0105C17.0405 16.8664 17.0272 16.6938 16.9335 16.5624L16.2962 15.6935C16.1553 15.5017 15.8856 15.4603 15.6935 15.6012C15.5017 15.742 15.4603 16.0118 15.6012 16.2038L16.2385 17.0726C16.3199 17.1833 16.449 17.2487 16.5864 17.2485Z" fill="black"/>
<path d="M18.8969 20.3998C19.0581 20.3977 19.2049 20.3061 19.2779 20.162C19.3508 20.0181 19.3377 19.8455 19.244 19.7142L18.0885 18.1383H18.0887C18.0219 18.0438 17.9201 17.9803 17.806 17.9616C17.6919 17.9431 17.5753 17.9711 17.482 18.0394C17.3888 18.1077 17.3269 18.2104 17.3101 18.3249C17.2936 18.4392 17.3234 18.5554 17.3933 18.6474L18.5488 20.2234H18.5486C18.6298 20.3344 18.7593 20.4 18.8969 20.3998Z" fill="black"/>
<path d="M20.6899 22.8447C20.8514 22.8424 20.9982 22.7508 21.0711 22.6067C21.144 22.4626 21.1308 22.29 21.037 22.1585L20.3997 21.2897C20.2589 21.0979 19.9891 21.0565 19.797 21.1974C19.6052 21.3382 19.5638 21.608 19.7047 21.8L20.342 22.6688C20.4234 22.7795 20.5525 22.8449 20.6899 22.8447Z" fill="black"/>
<path d="M8.70433 15.693L8.06699 16.5619C7.92613 16.7539 7.96751 17.0237 8.15935 17.1645C8.35139 17.3054 8.62118 17.264 8.76201 17.0722L9.39935 16.2033C9.54021 16.0113 9.49884 15.7415 9.30699 15.6007C9.11495 15.4598 8.84517 15.5012 8.70433 15.693Z" fill="black"/>
<path d="M6.45141 20.2236L7.60693 18.6477H7.60673C7.74259 18.4556 7.69948 18.1901 7.50956 18.0512C7.31982 17.912 7.05351 17.9509 6.91128 18.1385L5.75596 19.7145C5.62011 19.9065 5.66321 20.1721 5.85314 20.311C6.04287 20.4501 6.30918 20.4112 6.45141 20.2236Z" fill="black"/>
<path d="M4.658 22.6688L5.29534 21.8C5.4362 21.608 5.39483 21.3382 5.20279 21.1974C5.01094 21.0565 4.74116 21.0979 4.60032 21.2897L3.96298 22.1585C3.82213 22.3506 3.8635 22.6204 4.05535 22.7612C4.24739 22.9021 4.51717 22.8607 4.658 22.6688Z" fill="black"/>
<path d="M3.87928 2.58619H21.1207C21.3587 2.58619 21.5517 2.39319 21.5517 2.15516C21.5517 1.91713 21.3587 1.72412 21.1207 1.72412H3.87928C3.64125 1.72412 3.44824 1.91713 3.44824 2.15516C3.44824 2.39319 3.64125 2.58619 3.87928 2.58619Z" fill="black"/>
</svg>
