<svg width="33" height="30" viewBox="0 0 33 30" fill="none" xmlns="http://www.w3.org/2000/svg">
<path fill-rule="evenodd" clip-rule="evenodd" d="M10.2673 0H22.7037C24.8007 0 26.4917 6.26778e-08 27.8205 0.178686C29.2011 0.364558 30.3628 0.761627 31.2867 1.68417C32.2092 2.6077 32.6063 3.76985 32.7919 5.14967C32.9709 6.47919 32.9709 8.17019 32.9709 10.2671V14.2693C32.9709 16.3663 32.9709 18.0563 32.7919 19.3858C32.6063 20.7666 32.2093 21.9288 31.2867 22.8523C30.3632 23.7748 29.2011 24.172 27.8205 24.3575C26.4917 24.5361 24.8007 24.5361 22.7037 24.5361H12.515C11.9933 24.5361 11.8143 24.5375 11.6527 24.5539C10.7675 24.6453 9.95148 25.0746 9.3754 25.7524C9.26997 25.876 9.16728 26.0231 8.87255 26.4531L8.60453 26.8412C8.24476 27.366 7.96271 27.7761 7.74191 28.0817C7.53242 28.3717 7.32533 28.6441 7.12098 28.8379C4.73034 31.1073 0.776389 29.8799 0.0917363 26.655C0.0332021 26.3791 0.0167724 26.0378 0.00821531 25.6798C0 25.3026 0 24.8049 0 24.1689V10.2673C0 8.17027 -6.26778e-08 6.47928 0.179028 5.14984C0.364558 3.77002 0.761627 2.60787 1.68416 1.68434C2.60734 0.761858 3.76984 0.364719 5.15036 0.178855C6.47989 0.000169209 8.17018 0.000169147 10.2672 0.000169147L10.2673 0ZM5.45657 2.45846C4.3314 2.60976 3.73543 2.88634 3.31103 3.31148C2.88657 3.7356 2.60965 4.33123 2.45869 5.4564C2.30261 6.61513 2.30021 8.15032 2.30021 10.351V24.1527C2.30021 24.8082 2.30021 25.2795 2.30842 25.6273C2.31732 25.997 2.33409 26.1377 2.34231 26.1774C2.65347 27.6432 4.4499 28.2011 5.53704 27.1697C5.56613 27.1424 5.65958 27.0359 5.8766 26.7354C6.08027 26.4533 6.34727 26.0644 6.71867 25.5247L7.01031 25.1005C7.25952 24.7374 7.43169 24.4868 7.62338 24.2619C8.58389 23.1316 9.94356 22.4169 11.4192 22.2653C11.7122 22.2355 12.0158 22.2358 12.4571 22.2358H22.6195C24.8205 22.2358 26.3558 22.2327 27.5144 22.0777C28.6396 21.926 29.2356 21.6491 29.6593 21.2246C30.0841 20.8005 30.3611 20.2045 30.5124 19.0791C30.6685 17.9211 30.6705 16.3855 30.6705 14.1845V10.3504C30.6705 8.15008 30.6685 6.61445 30.5124 5.4558C30.3611 4.33064 30.0845 3.73466 29.6593 3.31088C29.2352 2.88608 28.6396 2.60916 27.5144 2.45786C26.3557 2.30177 24.8205 2.29971 22.6195 2.29971H10.3513C8.14995 2.29971 6.61502 2.30177 5.45638 2.45786L5.45657 2.45846Z" fill="black"/>
</svg>
