<svg width="30" height="30" viewBox="0 0 30 30" fill="none" xmlns="http://www.w3.org/2000/svg">
<path d="M5.79338 25.1736C5.75863 24.8816 5.74087 24.5881 5.74087 24.2931C5.74087 21.9817 6.78834 19.8921 8.48023 18.3842C9.45895 17.512 10.6552 16.8343 11.9887 16.4222C11.5705 16.1721 11.186 15.8722 10.8434 15.5296C9.77965 14.4659 9.12125 12.9957 9.12125 11.373C9.12125 9.75057 9.77965 8.28041 10.8434 7.2167C11.9071 6.15298 13.3772 5.49459 15 5.49459C16.6224 5.49459 18.0925 6.15298 19.1563 7.2167C20.22 8.28041 20.8784 9.75057 20.8784 11.373C20.8784 12.9957 20.22 14.4659 19.1563 15.5296C18.814 15.8718 18.4291 16.1725 18.011 16.4222C19.3447 16.8343 20.5407 17.512 21.5198 18.3842C23.2117 19.8921 24.2591 21.9817 24.2591 24.2931C24.2591 24.5878 24.2414 24.8816 24.2066 25.1733C24.3755 25.0203 24.5405 24.8635 24.7018 24.7022C27.1843 22.2197 28.7202 18.7891 28.7202 15C28.7202 11.2109 27.1843 7.78028 24.7018 5.29816C22.2197 2.81566 18.7891 1.27978 15 1.27978C11.2109 1.27978 7.78028 2.81566 5.29778 5.29816C2.81566 7.78028 1.27978 11.2109 1.27978 15C1.27978 18.7891 2.81566 22.2197 5.29778 24.7022C5.45908 24.8635 5.62415 25.0206 5.79338 25.1736ZM22.6107 26.4179C22.7217 26.1078 22.8097 25.7893 22.8709 25.466C22.942 25.0909 22.9794 24.6988 22.9794 24.2931C22.9794 22.3629 22.0966 20.6105 20.6699 19.3391C19.2227 18.0495 17.2181 17.2517 15 17.2517C12.7819 17.2517 10.7769 18.0499 9.33014 19.3391C7.90343 20.6105 7.02065 22.3629 7.02065 24.2931C7.02065 24.6992 7.05805 25.0917 7.12906 25.4668C7.18988 25.7901 7.27751 26.1082 7.38857 26.4175C9.56661 27.8718 12.184 28.7202 15 28.7202C17.8157 28.7202 20.433 27.8722 22.6107 26.4179ZM25.6061 25.6065C22.8921 28.3206 19.1415 30 15 30C10.8585 30 7.10791 28.3206 4.39348 25.6065C1.67943 22.8921 0 19.1415 0 15C0 10.8585 1.67943 7.10791 4.39348 4.39386C7.10828 1.67905 10.8585 0 15 0C19.1415 0 22.8921 1.67943 25.6061 4.39386C28.3206 7.10791 30 10.8585 30 15C30 19.1415 28.321 22.8917 25.6061 25.6065ZM15 15.9719C16.27 15.9719 17.4202 15.4571 18.252 14.6253C19.0837 13.7935 19.5986 12.6433 19.5986 11.373C19.5986 10.103 19.0837 8.95278 18.252 8.121C17.4202 7.28922 16.27 6.77436 15 6.77436C13.7297 6.77436 12.5795 7.28922 11.7477 8.121C10.9159 8.95278 10.401 10.103 10.401 11.373C10.401 12.6433 10.9159 13.7935 11.7477 14.6253C12.5795 15.4571 13.7297 15.9719 15 15.9719Z" fill="black"/>
</svg>
