<svg width="30" height="30" viewBox="0 0 30 30" fill="none" xmlns="http://www.w3.org/2000/svg">
<path d="M23.9999 2.99986V0H20.9998V3.00012L9.00009 2.99986V6.13082e-06H5.99997V3.00012C2.70003 2.99987 0 5.69989 0 9.00009V24C0 27.3 2.70003 30 5.99997 30H24.0001C27.3001 30 30.0001 27.3 30.0001 24V9.00009C30.0001 5.69989 27.3001 2.99986 24.0001 2.99986L23.9999 2.99986ZM5.99972 5.99997H23.9999C25.65 5.99997 27 7.34999 27 9.00009V10.5H2.99934V9.00009C2.99934 7.34999 4.34936 5.99997 5.99946 5.99997H5.99972ZM23.9999 27.0004H5.99972C4.34961 27.0004 2.9996 25.6504 2.9996 24.0003V13.5004H26.9996V24.0003C26.9999 25.6504 25.6499 27.0004 23.9998 27.0004H23.9999Z" fill="black"/>
<path d="M5.99951 21.75C5.99951 20.5074 7.00688 19.5 8.24953 19.5C9.49219 19.5 10.4996 20.5074 10.4996 21.75C10.4996 22.9927 9.49219 24 8.24953 24C7.00688 24 5.99951 22.9927 5.99951 21.75Z" fill="black"/>
</svg>
