<svg width="23" height="30" viewBox="0 0 23 30" fill="none" xmlns="http://www.w3.org/2000/svg">
<path fill-rule="evenodd" clip-rule="evenodd" d="M5.36616 0.000203971C4.24552 0.0291151 3.32061 0.932229 3.25728 2.04488H2.68388C1.21286 2.04488 0 3.25134 0 4.72236V27.3225C0 28.7935 1.21286 30 2.68388 30H20.1672C21.6382 30 22.8495 28.7935 22.8495 27.3225V4.72236C22.8495 3.25134 21.6382 2.04488 20.1672 2.04488H19.5938C19.5293 0.914137 18.5742 0.000203971 17.4287 0.000203971C16.2833 0.000203971 15.3297 0.913903 15.2652 2.04488H13.59C13.5255 0.914137 12.5703 0.000203971 11.4249 0.000203971C10.2794 0.000203971 9.32585 0.913903 9.26136 2.04488H7.58609C7.52162 0.914137 6.56643 0.000203971 5.421 0.000203971C5.40242 0.000203971 5.38475 -0.000254964 5.36639 0.000203971H5.36616ZM5.39347 1.64492C5.40288 1.64446 5.41136 1.64492 5.42077 1.64492C5.72434 1.64492 5.94278 1.86336 5.94278 2.16692V3.5627C5.94278 3.86627 5.72433 4.0847 5.42077 4.0847C5.1172 4.0847 4.89877 3.86626 4.89877 3.5627V2.16692C4.89877 1.87277 5.10458 1.658 5.39347 1.64492ZM11.3973 1.64492C11.4067 1.64446 11.4152 1.64492 11.4246 1.64492C11.7281 1.64492 11.9466 1.86336 11.9466 2.16692V3.5627C11.9466 3.86627 11.7281 4.0847 11.4246 4.0847C11.121 4.0847 10.9026 3.86626 10.9026 3.5627V2.16692C10.9026 1.87277 11.1084 1.658 11.3973 1.64492ZM17.4011 1.64492C17.4105 1.64446 17.419 1.64492 17.4284 1.64492C17.7319 1.64492 17.9504 1.86336 17.9504 2.16692V3.5627C17.9504 3.86627 17.7319 4.0847 17.4284 4.0847C17.1248 4.0847 16.9064 3.86626 16.9064 3.5627V2.16692C16.9064 1.87277 17.1122 1.658 17.4011 1.64492ZM2.6838 3.68478H3.2572C3.32168 4.81576 4.27528 5.72945 5.42071 5.72945C6.56613 5.72945 7.52136 4.81576 7.5858 3.68478H9.26106C9.32554 4.81576 10.2791 5.72945 11.4246 5.72945C12.57 5.72945 13.5252 4.81576 13.5897 3.68478H15.2649C15.3294 4.81576 16.283 5.72945 17.4284 5.72945C18.5739 5.72945 19.5291 4.81576 19.5935 3.68478H20.1669C20.7553 3.68478 21.2045 4.13404 21.2045 4.72236V27.3225C21.2045 27.9109 20.7552 28.3553 20.1669 28.3553H2.68359C2.09525 28.3553 1.646 27.9108 1.646 27.3225V4.72236C1.646 4.13402 2.09527 3.68478 2.68359 3.68478H2.6838ZM8.79039 7.48818C8.57219 7.48268 8.36063 7.56414 8.20253 7.71466H8.20092L6.07759 9.73037L5.29377 8.91125C4.98148 8.58382 4.46313 8.57028 4.13412 8.88096C3.80647 9.19324 3.79293 9.71136 4.10361 10.0406L5.44634 11.4605C5.5964 11.6192 5.80383 11.7115 6.02227 11.7172C6.24071 11.723 6.45249 11.6415 6.61084 11.4907L9.33649 8.91124C9.49572 8.76118 9.58843 8.55353 9.59416 8.33463C9.5999 8.11573 9.51821 7.90372 9.367 7.74518C9.21671 7.5864 9.00906 7.49392 8.79039 7.48818ZM11.3651 8.77794C11.146 8.77725 10.9353 8.86398 10.7804 9.01886C10.6253 9.17397 10.5386 9.38438 10.5395 9.60351C10.5404 9.82171 10.6278 10.0305 10.7827 10.1842C10.9374 10.3378 11.1469 10.4236 11.3651 10.4227H18.1513C18.6029 10.421 18.9686 10.0553 18.9704 9.60352C18.9713 9.38555 18.8855 9.17606 18.7318 9.02117C18.5783 8.86629 18.3695 8.77887 18.1513 8.77795L11.3651 8.77794ZM8.79198 14.6854C8.57354 14.6787 8.36153 14.7591 8.20253 14.9087H8.20092L6.07759 16.9244L5.29377 16.1053C4.98148 15.7778 4.46313 15.7643 4.13412 16.075C3.80647 16.3872 3.79293 16.9054 4.10361 17.2346L5.44634 18.6545C5.5964 18.8132 5.80383 18.9055 6.02227 18.9112C6.24071 18.917 6.45249 18.8355 6.61084 18.6848L9.33649 16.1052C9.66391 15.793 9.67768 15.2748 9.367 14.9456C9.21763 14.7859 9.01065 14.6923 8.79198 14.6854ZM11.3651 15.9767C11.1466 15.9761 10.9369 16.0621 10.782 16.2161C10.6272 16.37 10.54 16.5793 10.5395 16.7975C10.5386 17.0168 10.6253 17.2273 10.7804 17.3824C10.9353 17.5372 11.146 17.624 11.3651 17.6231H18.1513C18.3695 17.6224 18.5783 17.535 18.7318 17.3801C18.8855 17.2252 18.9714 17.0157 18.9704 16.7975C18.9695 16.3452 18.6035 15.9786 18.1513 15.9767L11.3651 15.9767ZM8.79039 21.8813C8.57195 21.8762 8.3604 21.9584 8.20253 22.1093H8.20092L6.07759 24.1235L5.29377 23.2979C4.98148 22.9705 4.46313 22.9569 4.13412 23.2676C3.97489 23.4179 3.88195 23.6253 3.87622 23.8442C3.87048 24.0631 3.9524 24.2751 4.10361 24.4337L5.44634 25.8487C5.59595 26.0082 5.80268 26.1013 6.02112 26.108C6.23979 26.1147 6.4518 26.0341 6.61081 25.8841L9.33646 23.2981C9.66297 22.9861 9.67651 22.4689 9.36698 22.1401C9.21692 21.9804 9.00926 21.8875 8.79036 21.8815L8.79039 21.8813ZM11.3651 23.171C11.146 23.1703 10.9353 23.2571 10.7804 23.412C10.6253 23.5671 10.5386 23.7775 10.5395 23.9966C10.5404 24.2148 10.6278 24.4236 10.7827 24.5773C10.9374 24.7308 11.1469 24.8167 11.3651 24.8157H18.1513C18.6029 24.8141 18.9686 24.4484 18.9704 23.9966C18.9713 23.7786 18.8855 23.5691 18.7318 23.4143C18.5783 23.2594 18.3695 23.172 18.1513 23.171L11.3651 23.171Z" fill="black"/>
</svg>
