<svg width="22" height="34" viewBox="0 0 22 34" fill="none" xmlns="http://www.w3.org/2000/svg">
<path d="M16.3894 4.93587C15.9983 4.93587 15.6807 4.61512 15.6807 4.22C15.6807 3.82487 15.9983 3.50413 16.3894 3.50413H18.6584C19.5759 3.50413 20.4106 3.88404 21.0164 4.4951C21.6239 5.10955 22 5.95262 22 6.87936V30.6248C22 31.5515 21.6239 32.395 21.0189 33.0065C20.4106 33.6201 19.5759 34 18.6584 34H3.34165C2.42413 34 1.58903 33.6201 0.983626 33.009C0.376129 32.395 0 31.5515 0 30.6248V6.87936C0 5.95262 0.376129 5.10955 0.981116 4.49764C1.58903 3.88404 2.42413 3.50413 3.34165 3.50413H5.61098C6.00217 3.50413 6.31972 3.82487 6.31972 4.22C6.31972 4.61512 6.00217 4.93587 5.61098 4.93587H3.34165C2.81197 4.93587 2.33041 5.15435 1.98148 5.50552C1.6338 5.85796 1.41749 6.34436 1.41749 6.87936V30.6248C1.41749 31.1598 1.6338 31.6462 1.98148 31.9986C2.33041 32.3498 2.81197 32.5683 3.34165 32.5683H18.6584C19.188 32.5683 19.6696 32.3498 20.0185 31.9986C20.3662 31.6462 20.5825 31.1598 20.5825 30.6248V6.87936C20.5825 6.34436 20.3662 5.85796 20.0185 5.50552C19.6696 5.15435 19.188 4.93587 18.6584 4.93587H16.3894ZM5.41308 26.0101C5.02189 26.0101 4.70433 25.6893 4.70433 25.2942C4.70433 24.8991 5.02189 24.5783 5.41308 24.5783H16.5869C16.9781 24.5783 17.2957 24.8991 17.2957 25.2942C17.2957 25.6893 16.9781 26.0101 16.5869 26.0101H5.41308ZM5.41308 17.2874C5.02189 17.2874 4.70433 16.9666 4.70433 16.5715C4.70433 16.1764 5.02189 15.8556 5.41308 15.8556H16.5869C16.9781 15.8556 17.2957 16.1764 17.2957 16.5715C17.2957 16.9666 16.9781 17.2874 16.5869 17.2874H5.41308ZM5.41308 21.6485C5.02189 21.6485 4.70433 21.3278 4.70433 20.9326C4.70433 20.5375 5.02189 20.2168 5.41308 20.2168H16.5869C16.9781 20.2168 17.2957 20.5375 17.2957 20.9326C17.2957 21.3278 16.9781 21.6485 16.5869 21.6485H5.41308ZM5.41308 12.9262C5.02189 12.9262 4.70433 12.6055 4.70433 12.2104C4.70433 11.8152 5.02189 11.4945 5.41308 11.4945H16.5869C16.9781 11.4945 17.2957 11.8152 17.2957 12.2104C17.2957 12.6055 16.9781 12.9262 16.5869 12.9262H5.41308ZM7.53932 1.67304H8.74427C8.85975 1.30285 9.06266 0.971115 9.32834 0.702347C9.75593 0.267923 10.3479 0 11.0002 0C11.6504 0 12.2416 0.2675 12.67 0.699811C12.9382 0.971115 13.1411 1.30285 13.2566 1.67304H14.4611C14.8523 1.67304 15.1698 1.99379 15.1698 2.38891V5.93276C15.1698 6.32788 14.8523 6.64863 14.4611 6.64863H7.53932C7.14813 6.64863 6.83057 6.32788 6.83057 5.93276V2.38891C6.83057 1.99379 7.14813 1.67304 7.53932 1.67304ZM9.34424 3.10478H8.24806V5.21689H13.7524V3.10478H12.6566C12.2654 3.10478 11.9479 2.78403 11.9479 2.38891C11.9479 2.1231 11.842 1.88264 11.6721 1.71023C11.5014 1.53865 11.2634 1.43174 11.0002 1.43174C10.7383 1.43174 10.5007 1.53908 10.33 1.71149C10.1588 1.88264 10.053 2.1231 10.053 2.38891C10.053 2.78403 9.73543 3.10478 9.34424 3.10478Z" fill="black"/>
</svg>
