<svg width="29" height="30" viewBox="0 0 29 30" fill="none" xmlns="http://www.w3.org/2000/svg">
<path d="M28.3053 20.2812V5.13443C28.3053 3.77268 27.7643 2.46672 26.8013 1.50374C25.8384 0.540759 24.5324 0 23.1707 0H5.16324C3.80149 0 2.49553 0.540812 1.53281 1.50374C0.569895 2.46665 0.0288086 3.77268 0.0288086 5.13443V24.8656C0.0288086 26.2273 0.569876 27.5333 1.53281 28.4963C2.49546 29.4592 3.80149 30 5.16324 30H23.1707C24.5324 30 25.8384 29.4592 26.8013 28.4963C27.7643 27.5333 28.3053 26.2273 28.3053 24.8656V20.2812ZM2.22944 11.8093H26.1048V19.1809H2.22944V11.8093ZM5.1635 2.23711H23.1709C23.9491 2.23711 24.6953 2.54615 25.2457 3.09642C25.7959 3.64669 26.105 4.39294 26.105 5.17117V9.60871H2.22957V5.13437C2.22957 4.35614 2.53861 3.60993 3.08888 3.05961C3.63915 2.50959 4.3854 2.2003 5.16337 2.2003L5.1635 2.23711ZM23.1709 27.7996H5.1635C4.38553 27.7996 3.63933 27.4903 3.08901 26.9403C2.53873 26.39 2.2297 25.6437 2.2297 24.8655V21.3814H26.1051V24.829V24.8287C26.1148 25.6133 25.8101 26.3691 25.2588 26.9272C24.7075 27.4854 23.9557 27.7996 23.171 27.7996L23.1709 27.7996Z" fill="black"/>
<path d="M6.66714 7.0053H8.68433C9.07753 7.0053 9.44055 6.79552 9.63729 6.45502C9.83376 6.11452 9.83376 5.6952 9.63729 5.35471C9.44056 5.01446 9.07754 4.80469 8.68433 4.80469H6.66714C6.27419 4.80469 5.91091 5.01446 5.71444 5.35471C5.51771 5.69521 5.51771 6.11453 5.71444 6.45502C5.91091 6.79552 6.27419 7.0053 6.66714 7.0053Z" fill="black"/>
<path d="M8.68433 14.377H6.66714C6.27419 14.377 5.91091 14.5867 5.71444 14.927C5.51771 15.2675 5.51771 15.6868 5.71444 16.0273C5.91091 16.3678 6.27419 16.5773 6.66714 16.5773H8.68433C9.07753 16.5773 9.44055 16.3678 9.63729 16.0273C9.83376 15.6868 9.83376 15.2675 9.63729 14.927C9.44056 14.5867 9.07754 14.377 8.68433 14.377Z" fill="black"/>
<path d="M8.68433 23.4727H6.66714C6.27419 23.4727 5.91091 23.6824 5.71444 24.0229C5.51771 24.3632 5.51771 24.7828 5.71444 25.123C5.91091 25.4635 6.27419 25.6733 6.66714 25.6733H8.68433C9.07753 25.6733 9.44055 25.4635 9.63729 25.123C9.83376 24.7827 9.83376 24.3632 9.63729 24.0229C9.44056 23.6824 9.07754 23.4727 8.68433 23.4727Z" fill="black"/>
</svg>
