<svg width="28" height="25" viewBox="0 0 28 25" fill="none" xmlns="http://www.w3.org/2000/svg">
<path d="M17.1734 13.3781H15.1299C15.1191 13.3783 15.1084 13.3739 15.1007 13.3662C15.093 13.3585 15.0886 13.3479 15.0888 13.3371V11.2935C15.0888 11.2687 15.0791 11.245 15.0616 11.2275C15.044 11.21 15.0203 11.2002 14.9955 11.2002H13.0065C12.9551 11.2002 12.9132 11.2421 12.9132 11.2935V13.3352C12.9134 13.346 12.909 13.3566 12.9013 13.3643C12.8936 13.3721 12.883 13.3764 12.8722 13.3762H10.8267C10.7753 13.3762 10.7334 13.4181 10.7334 13.4696V15.4567C10.7334 15.5081 10.7753 15.55 10.8267 15.55H12.8684C12.8792 15.5498 12.8898 15.5542 12.8976 15.5619C12.9053 15.5696 12.9096 15.5802 12.9094 15.591V17.6402C12.9094 17.6917 12.9513 17.7335 13.0028 17.7335H14.9899C15.0146 17.7335 15.0384 17.7237 15.0559 17.7062C15.0734 17.6887 15.0832 17.665 15.0832 17.6402V15.5967C15.083 15.5858 15.0874 15.5752 15.0951 15.5675C15.1028 15.5598 15.1134 15.5554 15.1242 15.5556H17.1734C17.1982 15.5556 17.2219 15.5458 17.2394 15.5283C17.2569 15.5108 17.2667 15.4871 17.2667 15.4623V13.4733C17.2672 13.4483 17.2576 13.424 17.2401 13.4061C17.2226 13.3881 17.1984 13.3781 17.1734 13.3781Z" fill="black"/>
<path d="M14 7.4668C12.1435 7.4668 10.3629 8.20429 9.05019 9.51698C7.73749 10.8297 7 12.6103 7 14.4668C7 16.3233 7.73749 18.1039 9.05019 19.4166C10.3629 20.7293 12.1435 21.4668 14 21.4668C15.8565 21.4668 17.6371 20.7293 18.9498 19.4166C20.2625 18.1039 21 16.3233 21 14.4668C20.9979 12.611 20.2598 10.8316 18.9475 9.51928C17.6353 8.20696 15.8558 7.46888 14 7.4668ZM14 20.5335C12.391 20.5335 10.8479 19.8943 9.71019 18.7566C8.57248 17.6189 7.93333 16.0758 7.93333 14.4668C7.93333 12.8578 8.57248 11.3147 9.71019 10.177C10.8479 9.03928 12.391 8.40013 14 8.40013C15.609 8.40013 17.1521 9.03928 18.2898 10.177C19.4275 11.3147 20.0667 12.8578 20.0667 14.4668C20.0648 16.0751 19.425 17.6172 18.2877 18.7545C17.1505 19.8919 15.6084 20.5316 14 20.5335Z" fill="black"/>
<path d="M25.6667 4.66667H21.2333V3.5C21.2323 2.57211 20.8633 1.68229 20.2071 1.02624C19.551 0.369973 18.6613 0.00101333 17.7333 0H10.2667C9.33877 0.00104165 8.44896 0.37 7.79291 1.02624C7.13664 1.68229 6.76768 2.57205 6.76667 3.5V4.66667H2.33333C1.71477 4.6675 1.12165 4.91354 0.68416 5.35083C0.24687 5.78833 0.000853333 6.38144 0 7V21.9333C0.000833333 22.5519 0.246875 23.145 0.68416 23.5825C1.12166 24.0198 1.71477 24.2658 2.33333 24.2667H25.6667C26.2852 24.2658 26.8783 24.0198 27.3158 23.5825C27.7531 23.145 27.9991 22.5519 28 21.9333V7C27.9992 6.38144 27.7531 5.78832 27.3158 5.35083C26.8783 4.91354 26.2852 4.66752 25.6667 4.66667ZM7.69973 3.5C7.70057 2.81957 7.97119 2.16731 8.45243 1.68603C8.93367 1.20478 9.58597 0.934133 10.2664 0.933333H17.7331C18.4135 0.934167 19.0658 1.20479 19.547 1.68603C20.0283 2.16727 20.2989 2.81957 20.2997 3.5V4.66667H18.8997V3.5C18.8997 3.19062 18.7768 2.89376 18.5581 2.67499C18.3393 2.45621 18.0424 2.33332 17.7331 2.33332H10.2664C9.95701 2.33332 9.66015 2.45624 9.44138 2.67499C9.2226 2.89373 9.09971 3.19061 9.09971 3.5V4.66667H7.69971L7.69973 3.5ZM17.9664 4.66667H10.0331V3.5C10.0331 3.37104 10.1374 3.26667 10.2664 3.26667H17.7331C17.7949 3.26667 17.8543 3.29125 17.8981 3.335C17.9418 3.37874 17.9664 3.43812 17.9664 3.5V4.66667ZM25.6667 23.3333H2.33333C1.96209 23.3333 1.60581 23.1858 1.34336 22.9233C1.08091 22.6608 0.93336 22.3046 0.93336 21.9334V10.7334H6.19315C6.45085 10.7334 6.65981 10.5244 6.65981 10.2667C6.65981 10.009 6.45085 9.80003 6.19315 9.80003H0.93336V7.00003C0.93336 6.62878 1.08086 6.27251 1.34336 6.01005C1.60586 5.7476 1.96213 5.60005 2.33333 5.60005H25.6667C26.0379 5.60005 26.3942 5.74755 26.6566 6.01005C26.9191 6.27256 27.0666 6.62883 27.0666 7.00003V9.80003H21.8069C21.5491 9.80003 21.3402 10.009 21.3402 10.2667C21.3402 10.5244 21.5491 10.7334 21.8069 10.7334H27.0666V21.9334C27.0666 22.3046 26.9191 22.6609 26.6566 22.9233C26.3941 23.1858 26.0379 23.3333 25.6667 23.3333Z" fill="black"/>
</svg>
