<svg width="14" height="12" viewBox="0 0 14 12" fill="none" xmlns="http://www.w3.org/2000/svg">
<path d="M1.64693 3.34365H1.6331C1.38302 3.34365 1.15193 3.47104 1.02689 3.6779C0.901845 3.88488 0.901845 4.13976 1.02689 4.34664C1.15193 4.5535 1.38302 4.68089 1.6331 4.68089V9.58433C1.6338 10.1162 1.85529 10.6261 2.24891 11.0021C2.64254 11.3782 3.17634 11.5898 3.73311 11.5903H10.2665C10.8233 11.5897 11.3571 11.3782 11.7507 11.0022C12.1445 10.6261 12.3659 10.1162 12.3666 9.58433V4.68089C12.6166 4.68089 12.8477 4.5535 12.9728 4.34664C13.0978 4.13977 13.0978 3.88489 12.9728 3.6779C12.8477 3.47104 12.6166 3.34365 12.3666 3.34365H12.3527C12.2948 2.85356 12.0503 2.40099 11.6655 2.07213C11.2807 1.74335 10.7828 1.56123 10.2665 1.56055H3.73311C3.2169 1.56122 2.71896 1.74334 2.33423 2.07221C1.94939 2.40099 1.70483 2.85359 1.64693 3.34365ZM11.8998 9.5845C11.8993 9.99813 11.727 10.3947 11.4208 10.6871C11.1146 10.9796 10.6995 11.1442 10.2665 11.1447H3.73308C3.30006 11.1442 2.88497 10.9797 2.57876 10.6872C2.27255 10.3947 2.10029 9.99813 2.09981 9.58453V4.68109H11.8997L11.8998 9.5845ZM12.5999 4.01221C12.5997 4.13524 12.4953 4.23497 12.3665 4.23508H1.63309C1.5043 4.23508 1.39977 4.13534 1.39977 4.01221C1.39977 3.88908 1.5043 3.78934 1.63309 3.78934H12.3665C12.4953 3.78945 12.5997 3.88919 12.5999 4.01221ZM11.8831 3.34359H2.11658C2.17318 2.9724 2.3676 2.63311 2.66444 2.38764C2.96128 2.14215 3.34062 2.0067 3.7332 2.00624H10.2666C10.6592 2.00669 11.0385 2.14203 11.3354 2.38764C11.6322 2.63312 11.8266 2.9724 11.8832 3.34359H11.8831Z" fill="black"/>
<path d="M7.46676 1.33735C7.71684 1.33735 7.94794 1.20985 8.07298 1.00298C8.19802 0.796117 8.19802 0.541239 8.07298 0.334366C7.94794 0.127494 7.71684 0 7.46676 0H6.53349C6.28341 0 6.05232 0.127499 5.92728 0.334366C5.80224 0.541233 5.80224 0.796111 5.92728 1.00298C6.05232 1.20986 6.28341 1.33735 6.53349 1.33735H7.46676ZM6.30015 0.668621C6.30026 0.545597 6.40468 0.445861 6.53347 0.445749H7.46674C7.59565 0.445749 7.70006 0.5456 7.70006 0.668621C7.70006 0.791755 7.59564 0.891604 7.46674 0.891604H6.53347C6.40468 0.89138 6.30026 0.791753 6.30015 0.668621Z" fill="black"/>
<path d="M12.6001 5.57197V6.01772C12.6001 6.2566 12.7335 6.47735 12.95 6.59679C13.1666 6.71623 13.4335 6.71623 13.6501 6.59679C13.8667 6.47735 14 6.2566 14 6.01772V5.57197C14 5.33309 13.8667 5.11234 13.6501 4.9929C13.4335 4.87346 13.1666 4.87346 12.95 4.9929C12.7334 5.11234 12.6001 5.33308 12.6001 5.57197ZM13.0667 5.57197C13.0667 5.44883 13.1712 5.34909 13.3001 5.34909C13.429 5.34909 13.5334 5.44883 13.5334 5.57197V6.01772C13.5334 6.14086 13.429 6.24059 13.3001 6.24059C13.1712 6.24059 13.0667 6.14085 13.0667 6.01772V5.57197Z" fill="black"/>
<path d="M0 5.57197V6.01772C0 6.2566 0.13336 6.47735 0.349922 6.59679C0.566484 6.71623 0.833434 6.71623 1.05001 6.59679C1.26658 6.47735 1.39993 6.2566 1.39993 6.01772V5.57197C1.39993 5.33309 1.26657 5.11234 1.05001 4.9929C0.833443 4.87346 0.566493 4.87346 0.349922 4.9929C0.133351 5.11234 0 5.33308 0 5.57197ZM0.933275 5.57197V6.01772C0.933275 6.14086 0.828859 6.24059 0.699954 6.24059C0.57105 6.24059 0.466634 6.14085 0.466634 6.01772V5.57197C0.466634 5.44883 0.57105 5.34909 0.699954 5.34909C0.828859 5.34909 0.933275 5.44883 0.933275 5.57197Z" fill="black"/>
<path d="M2.56635 7.13215C2.62822 7.13215 2.68764 7.10864 2.73135 7.06689C2.77506 7.02502 2.79967 6.96838 2.79967 6.90928V5.34906H4.43303C4.56182 5.34906 4.66635 5.24921 4.66635 5.12619C4.66635 5.00306 4.56181 4.90332 4.43303 4.90332H2.56633C2.50445 4.90321 2.44504 4.92672 2.40133 4.96858C2.3575 5.01033 2.33301 5.06709 2.33301 5.12619V6.9093C2.33301 6.9684 2.3575 7.02504 2.40133 7.06691C2.44504 7.10866 2.50447 7.13215 2.56635 7.13215Z" fill="black"/>
<path d="M5.13322 5.34906H6.06662C6.19541 5.34906 6.29994 5.24921 6.29994 5.12619C6.29994 5.00306 6.19541 4.90332 6.06662 4.90332H5.13322C5.00432 4.90332 4.8999 5.00306 4.8999 5.12619C4.8999 5.24922 5.00432 5.34906 5.13322 5.34906Z" fill="black"/>
<path d="M6.99992 5.34906H7.23324C7.36215 5.34906 7.46656 5.24921 7.46656 5.12619C7.46656 5.00306 7.36215 4.90332 7.23324 4.90332H6.99992C6.87101 4.90332 6.7666 5.00306 6.7666 5.12619C6.7666 5.24922 6.87102 5.34906 6.99992 5.34906Z" fill="black"/>
</svg>
