<svg width="27" height="27" viewBox="0 0 27 27" fill="none" xmlns="http://www.w3.org/2000/svg">
<path d="M23.2728 0H3.75561C1.67855 0 0 1.67855 0 3.75561V23.2444C0 25.3213 1.67855 27 3.75561 27H23.2444C25.3213 27 27 25.3215 27 23.2444L26.9998 3.75561C27.0282 1.67855 25.3497 0 23.2726 0H23.2728ZM14.1117 15.7902H11.4942V22.1916H8.47828V4.83663H14.1115C17.1273 4.83663 19.6025 7.2834 19.6025 10.3276C19.6027 13.372 17.1276 15.7902 14.112 15.7902H14.1117Z" fill="black"/>
<path d="M14.1116 7.82427H11.4941V12.7748H14.1116C15.4772 12.7748 16.5868 11.6652 16.5868 10.2996C16.5868 8.9338 15.4772 7.82422 14.1116 7.82422V7.82427Z" fill="black"/>
</svg>
