<svg width="98" height="108" viewBox="0 0 98 108" fill="none" xmlns="http://www.w3.org/2000/svg">
<path d="M18.8764 57.8015C18.7478 57.6206 18.6557 57.4136 18.6065 57.1909L11.469 24.3462C11.3488 23.7838 11.525 23.1982 11.9374 22.7981C12.3495 22.3993 12.9424 22.239 13.4996 22.3789L21.7619 24.45C22.2613 24.5758 22.6734 24.9257 22.8806 25.398L31.5323 45.2248L44.1653 49.9533L27.5718 18.5522C27.2569 17.9577 27.3326 17.2326 27.7619 16.7148C28.1913 16.197 28.8904 15.9894 29.5338 16.1882L40.2575 19.5113C40.6057 19.6195 40.9087 19.8384 41.1202 20.1358L41.1214 20.1375L69.6321 60.3192L86.4919 66.173C86.5264 66.1853 86.5601 66.1981 86.5921 66.2121C89.0948 67.2667 90.9977 68.6926 92.2498 70.4527C94.1302 73.0961 94.3388 76.3152 92.8086 79.0617C90.4892 83.2262 86.4103 84.4429 81.3237 82.4886L19.6253 58.3867C19.3215 58.2667 19.0614 58.0614 18.8764 57.8015ZM15.2884 26.2546L21.6672 55.6125L82.526 79.3863C87.1737 81.1705 88.964 79.1311 89.9053 77.4405C90.8092 75.8181 90.6772 73.973 89.5417 72.3767C88.6733 71.1561 87.2253 70.0901 85.3512 69.2928L68.04 63.2841C67.7141 63.171 67.4308 62.959 67.2302 62.6771L67.2291 62.6755L38.7363 22.519L32.3896 20.5529L49.149 52.2668C49.4719 52.8777 49.3841 53.6237 48.9275 54.1412C48.471 54.6586 47.7431 54.8414 47.0962 54.5996L29.7094 48.0912C29.2872 47.9325 28.9462 47.6118 28.7683 47.1996L20.1605 27.4778L15.2884 26.2546Z" fill="black"/>
<path d="M85.0077 94.4774H22.4137C21.4957 94.4774 20.7507 93.7324 20.7507 92.8154C20.7507 91.8964 21.4947 91.1514 22.4137 91.1514H85.0077C85.9257 91.1514 86.6697 91.8964 86.6697 92.8154C86.6697 93.7314 85.9257 94.4774 85.0077 94.4774Z" fill="black"/>
</svg>
