<svg width="33" height="34" viewBox="0 0 33 34" fill="none" xmlns="http://www.w3.org/2000/svg">
<path d="M8.51662 7.67506V4.48145H2.12939V7.67506H8.51662ZM3.19423 5.54604H7.45226V6.61064L3.19423 6.61041V5.54604Z" fill="black"/>
<path d="M11.1774 7.67512C12.0578 7.67512 12.7742 6.95878 12.7742 6.07828C12.7742 5.19783 12.0579 4.48145 11.1774 4.48145C10.297 4.48145 9.58057 5.19778 9.58057 6.07828C9.5808 6.95873 10.2971 7.67512 11.1774 7.67512ZM11.1774 5.5461C11.4709 5.5461 11.7096 5.78481 11.7096 6.07829C11.7096 6.37178 11.4709 6.61048 11.1774 6.61048C10.8839 6.61048 10.6452 6.37178 10.6452 6.07829C10.6452 5.78481 10.8839 5.5461 11.1774 5.5461Z" fill="black"/>
<path d="M15.4352 7.67512C16.3157 7.67512 17.032 6.95878 17.032 6.07828C17.032 5.19783 16.3157 4.48145 15.4352 4.48145C14.5547 4.48145 13.8384 5.19778 13.8384 6.07828C13.8386 6.95873 14.5549 7.67512 15.4352 7.67512ZM15.4352 5.5461C15.7287 5.5461 15.9674 5.78481 15.9674 6.07829C15.9674 6.37178 15.7287 6.61048 15.4352 6.61048C15.1417 6.61048 14.903 6.37178 14.903 6.07829C14.903 5.78481 15.142 5.5461 15.4352 5.5461Z" fill="black"/>
<path d="M18.0967 4.48193H22.3547V5.54653H18.0967V4.48193Z" fill="black"/>
<path d="M18.0967 6.61084H22.3547V7.67544H18.0967V6.61084Z" fill="black"/>
<path d="M31.4031 19.3845H29.1825C29.2416 19.2178 29.2741 19.0387 29.2741 18.8523C29.2741 18.4437 29.1196 18.0706 28.8662 17.7877C29.1196 17.505 29.2741 17.1319 29.2741 16.7231C29.2741 16.5152 29.2338 16.3168 29.1613 16.1345C29.8387 15.9501 30.3387 15.3296 30.3387 14.5943C30.3387 13.7139 29.6224 12.9975 28.7418 12.9975H24.4838V1.81998C24.4838 0.939534 23.7675 0.223145 22.887 0.223145H1.59683C0.716389 0.223145 0 0.939475 0 1.81998V27.3683C0 28.8357 1.19377 30.0295 2.6612 30.0295H19.1611V31.6263C19.1611 32.5068 19.8774 33.2231 20.7579 33.2231H29.2742C30.1547 33.2231 30.871 32.5068 30.871 31.6263V22.5779H31.4032C32.2837 22.5779 33.0001 21.8616 33.0001 20.9811C33.0001 20.1006 32.2837 19.3842 31.4032 19.3842L31.4031 19.3845ZM6.3952 17.4827C6.63183 17.56 6.84499 17.6507 7.06457 17.7449C7.69368 18.0144 8.40677 18.3201 9.75799 18.3201C11.1092 18.3201 11.8223 18.0144 12.4514 17.7449C13.0384 17.4933 13.5929 17.2557 14.7257 17.2557C15.8585 17.2557 16.413 17.4933 17 17.7449C17.3261 17.8846 17.6606 18.028 18.0853 18.1371C18.0556 18.6417 17.9624 19.1364 17.8054 19.614C17.3427 19.8937 17.0324 20.4019 17.0324 20.9813C17.0324 21.0356 17.0352 21.0895 17.0405 21.1424C15.9427 22.7119 14.1643 23.6425 12.2422 23.6425C9.01383 23.6425 6.38741 21.0161 6.38741 17.7877C6.38741 17.6855 6.39014 17.5838 6.3952 17.4827ZM6.55012 16.4156C7.16957 13.8471 9.48639 11.9331 12.2422 11.9331C15.2084 11.9331 17.6661 14.1503 18.0459 17.0145C17.8261 16.9402 17.6256 16.8548 17.4196 16.7666C16.7905 16.4971 16.0771 16.1914 14.7262 16.1914C13.3749 16.1914 12.6618 16.4971 12.0327 16.7666C11.4458 17.0182 10.8912 17.2558 9.75846 17.2558C8.62592 17.2558 8.07141 17.0182 7.48442 16.7666C7.19807 16.6437 6.90527 16.5182 6.55012 16.4156ZM12.2422 10.8685C8.42686 10.8685 5.32288 13.9726 5.32288 17.7878C5.32288 21.6032 8.42698 24.7072 12.2422 24.7072C14.3307 24.7072 16.2751 23.7772 17.5833 22.1864C17.8634 22.4299 18.2287 22.5779 18.6283 22.5782C17.1307 24.5679 14.7623 25.7718 12.2423 25.7718C7.83994 25.7718 4.2587 22.1903 4.2587 17.7882C4.2587 13.3861 7.84017 9.80462 12.2423 9.80462C15.876 9.80462 19.0886 12.3167 19.9795 15.8141C19.7993 16.0726 19.6937 16.3861 19.6937 16.7243C19.6937 17.1328 19.8481 17.506 20.1015 17.7889C19.8481 18.0715 19.6937 18.4447 19.6937 18.8534C19.6937 19.0399 19.7261 19.2192 19.7853 19.3856H18.9748C19.0979 18.865 19.1615 18.3309 19.1615 17.7888C19.1612 13.9734 16.0574 10.8695 12.2421 10.8695L12.2422 10.8685ZM24.1722 27.3684L25.0163 26.5243L25.8604 27.3684L25.0163 28.2125L24.1722 27.3684ZM24.2636 28.9652L23.4195 29.8093L22.5757 28.9652L23.4195 28.1211L24.2636 28.9652ZM23.4195 26.6157L22.5757 25.7716L23.4195 24.9277L24.2636 25.7716L23.4195 26.6157ZM22.6668 27.3684L21.823 28.2125L20.9789 27.3684L21.823 26.5243L22.6668 27.3684ZM19.1616 25.7715H16.4905C17.5028 25.2324 18.412 24.5023 19.1616 23.6156V25.7715ZM23.4196 8.73953H1.06519V3.41714H23.4202L23.4196 8.73953ZM7.98807 9.80412C5.13766 11.3291 3.19397 14.3356 3.19397 17.7877C3.19397 21.2401 5.13766 24.2468 7.98807 25.7713L1.06519 25.7711V9.80389L7.98807 9.80412ZM28.2099 16.7235C28.2099 17.017 27.9711 17.2557 27.6777 17.2557H21.2904C20.9969 17.2557 20.7582 17.017 20.7582 16.7235C20.7582 16.43 20.997 16.1913 21.2904 16.1913H27.6777C27.9707 16.1913 28.2096 16.43 28.2096 16.7235H28.2099ZM20.7584 18.8525C20.7584 18.559 20.9971 18.3203 21.2906 18.3203H27.6778C27.9713 18.3203 28.21 18.559 28.21 18.8525C28.21 19.146 27.9713 19.3847 27.6778 19.3847H21.2906C20.9971 19.3847 20.7584 19.146 20.7584 18.8525ZM29.2747 14.5945C29.2747 14.8879 29.036 15.1266 28.7425 15.1266H22.3553C22.0618 15.1266 21.8231 14.8879 21.8231 14.5945C21.8231 14.301 22.0618 14.0623 22.3553 14.0623H28.7425C29.0362 14.0623 29.2749 14.301 29.2749 14.5945H29.2747ZM22.3553 12.9976C21.4749 12.9976 20.7585 13.7139 20.7585 14.5945C20.7585 14.6458 20.7613 14.6967 20.7659 14.7468C20.2118 13.1995 19.2363 11.8129 17.9488 10.7655C17.4965 10.3975 17.0106 10.0759 16.4998 9.80406L23.4197 9.80429V12.9979L22.3553 12.9976ZM1.59731 1.28801H22.8875C23.181 1.28801 23.4197 1.52671 23.4197 1.8202V2.35239H1.06526V1.8202C1.06526 1.52671 1.30397 1.28801 1.59745 1.28801H1.59731ZM2.66167 28.9654C1.78123 28.9654 1.06484 28.249 1.06484 27.3685V26.8363H19.1617V28.9654L2.66167 28.9654ZM29.8063 31.6266C29.8063 31.9201 29.5676 32.1588 29.2741 32.1588H20.7578C20.4644 32.1588 20.2257 31.9201 20.2257 31.6266V28.1213L21.0695 28.9654L20.3815 29.6534L21.1341 30.4061L21.8224 29.7181L22.6663 30.5622L21.9782 31.2502L22.7309 32.0029L23.419 31.3148L24.107 32.0029L24.8597 31.2502L24.1717 30.5622L25.0157 29.7181L25.7038 30.4061L26.4565 29.6534L25.7684 28.9654L26.6125 28.1213L27.3006 28.8093L28.0533 28.0566L27.3652 27.3686L28.0533 26.6806L27.3006 25.9279L26.6125 26.6159L25.7684 25.7718L26.4565 25.0838L25.7038 24.3311L25.0157 25.0191L24.1717 24.1753L24.8597 23.4872L24.107 22.7346L23.419 23.4226L22.7309 22.7346L21.9782 23.4872L22.6663 24.1753L21.8224 25.0191L21.1344 24.3311L20.3817 25.0838L21.0695 25.7718L20.2257 26.6159V22.5784H29.8062L29.8063 31.6266ZM31.4032 21.5139H18.6293C18.3358 21.5139 18.0971 21.2752 18.0971 20.9817C18.0971 20.6882 18.3358 20.4495 18.6293 20.4495H31.4032C31.6967 20.4495 31.9354 20.6882 31.9354 20.9817C31.9354 21.2752 31.6967 21.5139 31.4032 21.5139Z" fill="black"/>
<path d="M9.58072 22.0452C10.4612 22.0452 11.1776 21.3289 11.1776 20.4484C11.1776 19.568 10.4612 18.8516 9.58072 18.8516C8.70028 18.8516 7.98389 19.5679 7.98389 20.4484C7.98389 21.3288 8.70022 22.0452 9.58072 22.0452ZM9.58072 19.9162C9.87421 19.9162 10.1129 20.1549 10.1129 20.4484C10.1129 20.7419 9.87421 20.9806 9.58072 20.9806C9.28724 20.9806 9.04853 20.7419 9.04853 20.4484C9.0483 20.1549 9.28724 19.9162 9.58072 19.9162Z" fill="black"/>
<path d="M14.3712 20.9813C15.2517 20.9813 15.9681 20.2649 15.9681 19.3844C15.9681 18.5039 15.2518 17.7876 14.3712 17.7876C13.4907 17.7876 12.7744 18.5039 12.7744 19.3844C12.7744 20.2649 13.4907 20.9813 14.3712 20.9813ZM14.3712 18.8523C14.6647 18.8523 14.9034 19.091 14.9034 19.3844C14.9034 19.6779 14.6647 19.9166 14.3712 19.9166C14.0778 19.9166 13.8391 19.6779 13.8391 19.3844C13.8391 19.091 14.0778 18.8523 14.3712 18.8523Z" fill="black"/>
</svg>
