<svg width="30" height="26" viewBox="0 0 30 26" fill="none" xmlns="http://www.w3.org/2000/svg">
<path d="M13.0585 20.5405C12.5441 21.0551 12.2551 21.7527 12.2554 22.4803C12.2554 23.2078 12.5445 23.9055 13.0589 24.4199C13.5733 24.9345 14.2712 25.2234 14.9988 25.2234C15.7263 25.2234 16.424 24.9345 16.9384 24.4199C17.453 23.9055 17.7419 23.2078 17.7422 22.4803C17.7422 21.7527 17.4532 21.0551 16.9388 20.5405C16.4238 20.0267 15.7261 19.7383 14.9988 19.7383C14.2712 19.7383 13.5735 20.0268 13.0585 20.5405ZM16.2205 23.7025C15.8965 24.0262 15.4572 24.2081 14.9992 24.2081C14.5411 24.2078 14.1018 24.0257 13.7781 23.7018C13.4543 23.378 13.2724 22.9386 13.2724 22.4808C13.2724 22.0226 13.4543 21.5833 13.7781 21.2594C14.1018 20.9356 14.5411 20.7534 14.9992 20.7534C15.4571 20.7532 15.8965 20.9351 16.2205 21.2588C16.5446 21.5833 16.7265 22.0231 16.7265 22.4816C16.7265 22.9402 16.5446 23.38 16.2205 23.7045V23.7025Z" fill="black"/>
<path d="M0.706062 5.38037C0.275138 5.74801 0.0193138 6.28055 0.00137289 6.84664C-0.0197196 7.42929 0.203002 7.99428 0.616241 8.40588C1.00044 8.79326 1.52345 9.01123 2.06911 9.01146C2.57284 9.01055 3.05958 8.82888 3.44081 8.49979C3.84723 8.15438 4.27137 7.82367 4.7048 7.51682C7.71603 5.38875 11.3127 4.24588 15.0002 4.24588C18.6876 4.24588 22.284 5.38875 25.2956 7.51682C25.732 7.82617 26.1593 8.15683 26.5596 8.50043V8.5002C26.954 8.84608 27.4653 9.02888 27.9896 9.01164C28.5138 8.99418 29.0118 8.77804 29.3824 8.40676L29.389 8.40064C29.799 7.99035 30.0197 7.42788 29.9986 6.8482C29.9805 6.28187 29.7246 5.74956 29.2939 5.38145C25.3002 1.99689 20.2352 0.139392 15.0004 0.13916C9.76561 0.138933 4.70034 1.99619 0.706311 5.38035L0.706062 5.38037ZM28.6684 7.68127L28.6618 7.6874C28.471 7.87655 28.2154 7.98587 27.9469 7.99312C27.6786 8.00038 27.4176 7.90513 27.2169 7.72664C26.7916 7.3633 26.3421 7.01539 25.8812 6.68722C22.6983 4.43735 18.8965 3.22939 14.9982 3.22939C11.1004 3.22939 7.29815 4.43735 4.11523 6.68722C3.658 7.01132 3.20732 7.36126 2.77912 7.72664C2.56956 7.9108 2.29626 8.00515 2.01777 7.9895C1.73948 7.97362 1.47843 7.8491 1.29084 7.64271C1.1035 7.43632 1.00484 7.16439 1.01618 6.88589C1.0248 6.60238 1.15226 6.33589 1.36772 6.1517C5.17643 2.92524 10.0061 1.15437 14.9976 1.15437C19.9891 1.15437 24.8192 2.92524 28.6275 6.1517C28.8429 6.33587 28.9706 6.60281 28.9786 6.88629C28.9899 7.18295 28.8774 7.4712 28.6676 7.68121L28.6684 7.68127Z" fill="black"/>
<path d="M24.5348 9.96041C21.8213 7.80919 18.4604 6.63867 14.9976 6.63867C11.5348 6.63867 8.1737 7.80919 5.4605 9.96041C4.99238 10.3274 4.70414 10.8776 4.66872 11.4713C4.63334 12.0651 4.85447 12.6455 5.27563 13.0655C5.63353 13.4241 6.11096 13.6387 6.61696 13.6679C7.12273 13.6974 7.62195 13.5398 8.01903 13.225C8.37057 12.9469 8.73887 12.6902 9.12149 12.4564C10.9831 11.3182 13.135 10.7451 15.316 10.8064C17.4972 10.8676 19.6135 11.5607 21.4084 12.8013C21.5998 12.9344 21.789 13.073 21.9738 13.2195C22.3712 13.5352 22.8706 13.694 23.3773 13.6659C23.884 13.6377 24.3628 13.4248 24.7229 13.0671L24.7279 13.0621V13.0619C25.1466 12.6414 25.3652 12.0617 25.3287 11.4695C25.2922 10.8774 25.0039 10.3289 24.5369 9.9629L24.5348 9.96041ZM24.0075 12.3416L24.0018 12.3466C23.8183 12.5287 23.5745 12.6369 23.3164 12.6508C23.0583 12.6646 22.804 12.5832 22.6022 12.4219C22.399 12.2625 22.1933 12.1101 21.9848 11.9647C19.8227 10.4687 17.2374 9.70621 14.6093 9.78941C11.9813 9.87265 9.44956 10.7971 7.38647 12.4269C7.18348 12.5868 6.92856 12.6664 6.67069 12.6505C6.41282 12.6347 6.16968 12.5242 5.98777 12.3405C5.7748 12.1289 5.66368 11.8354 5.68295 11.5358C5.70132 11.2303 5.8492 10.9468 6.08938 10.757C8.62387 8.74796 11.7631 7.65455 14.9977 7.65455C18.2319 7.65455 21.3711 8.74796 23.9055 10.757C24.1457 10.9468 24.2935 11.2303 24.3119 11.5358C24.3316 11.8359 24.2207 12.1298 24.0075 12.3417L24.0075 12.3416Z" fill="black"/>
<path d="M19.6622 14.5862C19.4976 14.4846 19.3298 14.3873 19.1587 14.2941C16.387 12.8076 13.0333 12.9116 10.3584 14.5665C9.82383 14.8979 9.4714 15.4565 9.40173 16.0813C9.32757 16.7157 9.55006 17.3489 10.0048 17.7976C10.3421 18.1251 10.7791 18.3305 11.2466 18.3809C11.714 18.4315 12.1848 18.324 12.584 18.0761C13.9963 17.2308 15.747 17.1836 17.2026 17.9516C17.2951 18.001 17.3856 18.0536 17.4743 18.1096L17.4745 18.1094C17.7893 18.3051 18.1529 18.4081 18.5235 18.4068C19.0692 18.4077 19.5928 18.1922 19.98 17.8078L19.987 17.8017L20.0006 17.7885H20.0009C20.4515 17.3392 20.6713 16.7083 20.5973 16.0764C20.5313 15.4622 20.1864 14.9127 19.662 14.5863L19.6622 14.5862ZM19.2821 17.0679L19.2755 17.0745C19.1152 17.2403 18.9036 17.3475 18.675 17.3786C18.4463 17.4099 18.2139 17.3634 18.0148 17.2468C17.9054 17.1783 17.7948 17.1137 17.6816 17.0534L17.6813 17.0531C16.8599 16.6154 15.9431 16.3872 15.0121 16.3886C13.9736 16.388 12.9541 16.6687 12.0625 17.2015C11.8559 17.3358 11.6098 17.3954 11.3646 17.3709C11.1195 17.3466 10.8902 17.2394 10.7142 17.067C10.4849 16.8388 10.3735 16.5179 10.4119 16.1968C10.4466 15.8797 10.625 15.5964 10.8961 15.4286C12.0548 14.6997 13.387 14.2932 14.7553 14.2513C16.1236 14.2094 17.4783 14.5335 18.6797 15.1898C18.8312 15.2703 18.9795 15.3565 19.1251 15.4479C19.3851 15.6108 19.5558 15.8841 19.588 16.1891C19.6259 16.5135 19.5132 16.8373 19.2821 17.068L19.2821 17.0679Z" fill="black"/>
</svg>
