<svg width="30" height="31" viewBox="0 0 30 31" fill="none" xmlns="http://www.w3.org/2000/svg">
<path d="M28.5027 12.3042C28.5314 12.2324 28.5505 12.156 28.5648 12.0745L29.0767 9.07506C29.4498 8.90283 29.7129 8.5249 29.7129 8.08951C29.7129 7.49158 29.2249 7.00348 28.6269 7.00348H26.4455V6.88389C26.5556 6.89821 26.6703 6.91252 26.7802 6.91252C27.3161 6.91252 27.8039 6.74976 28.201 6.43416C28.8086 5.9461 29.1051 5.16647 29.0381 4.23352C29.0238 4.04697 28.8899 3.88422 28.7128 3.83158C27.8708 3.57808 27.0958 3.67367 26.4979 4.08992C27.1011 3.58314 27.4408 2.93742 27.4408 2.24364C27.4408 1.46377 27.015 0.7462 26.2448 0.215196C26.0918 0.10992 25.8812 0.114769 25.7282 0.220042C24.958 0.746196 24.5369 1.46862 24.5369 2.24364C24.5369 2.94204 24.8813 3.59263 25.5319 4.11901C24.9291 3.67412 24.1303 3.56885 23.2691 3.82719C23.0874 3.87983 22.9581 4.04237 22.9487 4.22913C22.8817 5.16208 23.1784 5.94173 23.7858 6.42977C24.1781 6.74559 24.6661 6.90813 25.2066 6.90813C25.3167 6.90813 25.4266 6.89382 25.5414 6.8795V6.99909H23.3599C22.762 6.99909 22.2739 7.48714 22.2739 8.08512C22.2739 8.52054 22.5371 8.89848 22.9101 9.07067L23.422 12.0701C23.4363 12.1419 23.4555 12.2089 23.4746 12.271H21.274L21.781 8.79313C21.8766 8.13769 21.6805 7.47278 21.25 6.97527C20.8145 6.4729 20.188 6.18593 19.5277 6.18593H17.1167L17.1171 2.27247C17.1171 1.0191 16.0981 0 14.8446 0H4.19075C2.93738 0 1.91828 1.01904 1.91828 2.27247V8.4677C1.91828 9.72106 2.93733 10.7402 4.19075 10.7402H7.63996L7.25718 12.271L1.76526 12.2708C0.794194 12.2708 0 13.0602 0 14.0361C0 15.012 0.789345 15.8013 1.76526 15.8013H2.07139V29.5506C2.07139 29.8041 2.2771 30.0052 2.52597 30.0052H5.14287C5.39637 30.0052 5.59745 29.7995 5.59745 29.5506L5.59723 15.8013H9.53911L9.78313 17.4853H9.15656C8.04674 17.4853 7.14244 18.3894 7.14244 19.4994C7.14244 20.6092 8.04652 21.5135 9.15656 21.5135H13.4334V24.824H10.9553C10.1754 24.824 9.53934 25.4603 9.53934 26.2353C9.53934 26.7855 9.85979 27.259 10.3192 27.4935C10.1375 27.7662 10.0322 28.0866 10.0322 28.4408C10.0322 29.3784 10.7929 30.1391 11.7305 30.1391C12.6681 30.1391 13.4288 29.3784 13.4288 28.4408C13.4288 28.1538 13.3521 27.8906 13.2231 27.6514H17.0694C16.945 27.8906 16.8637 28.1538 16.8637 28.4408C16.8637 29.3784 17.6244 30.1391 18.562 30.1391C19.4995 30.1391 20.2602 29.3784 20.2602 28.4408C20.2602 28.0869 20.1501 27.7615 19.9684 27.4887C20.423 27.2543 20.7386 26.7854 20.7386 26.2353C20.7386 25.4554 20.1023 24.824 19.3227 24.824H16.8445V21.5135H21.1214C22.2312 21.5135 23.1355 20.6095 23.1355 19.4994C23.1355 18.3896 22.2314 17.4853 21.1214 17.4853H20.5038L20.7478 15.8013H24.4027V29.5506C24.4027 29.8041 24.6084 30.0052 24.8573 30.0052H27.4742C27.7277 30.0052 27.9288 29.7995 27.9288 29.5506L27.9286 15.8013H28.2347C29.2058 15.8013 30 15.012 30 14.0361C30.0048 13.156 29.3494 12.4287 28.5025 12.3043L28.5027 12.3042ZM24.3503 5.72165C24.049 5.48247 23.8768 5.09971 23.848 4.62616C24.3168 4.54951 24.7282 4.63563 25.0295 4.87503C25.3308 5.11421 25.5031 5.5016 25.5319 5.97053C25.0632 6.04695 24.647 5.96084 24.3503 5.72165ZM28.1248 4.62616C28.0962 5.09967 27.9239 5.48248 27.6224 5.72165C27.3211 5.96084 26.9143 6.04695 26.4408 5.97053C26.4695 5.49701 26.6417 5.1142 26.9432 4.87503C27.2447 4.63563 27.6562 4.54952 28.1248 4.62616ZM25.9865 1.1721C26.3404 1.48792 26.5269 1.86102 26.5269 2.24842C26.5269 2.63583 26.3355 3.00913 25.9816 3.32475C25.6325 3.0043 25.4458 2.6312 25.4458 2.24842C25.4458 1.86564 25.6325 1.49257 25.9865 1.1721ZM12.5242 28.4406C12.5242 28.876 12.1703 29.2299 11.7348 29.2299C11.2994 29.2299 10.9455 28.876 10.9455 28.4406C10.9455 28.0052 11.2994 27.6512 11.7348 27.6512C12.1703 27.6512 12.5242 28.0052 12.5242 28.4406ZM18.5711 29.2299C18.1357 29.2299 17.7818 28.876 17.7818 28.4406C17.7818 28.0052 18.1357 27.6512 18.5711 27.6512C19.0066 27.6512 19.3605 28.0052 19.3605 28.4406C19.3556 28.8758 19.0017 29.2299 18.5711 29.2299ZM19.8388 26.2399C19.8388 26.5174 19.614 26.7423 19.3365 26.7423H10.9649C10.6874 26.7423 10.4625 26.5174 10.4625 26.2399C10.4625 25.9624 10.6874 25.7376 10.9649 25.7376H19.3365C19.6093 25.7329 19.8388 25.9624 19.8388 26.2399ZM14.3469 24.824V21.5184H15.9399V24.824H14.3469ZM23.3505 7.91288H28.6224C28.7229 7.91288 28.7995 7.99414 28.7995 8.08995C28.7995 8.19038 28.7182 8.26702 28.6224 8.26702L23.3505 8.2668C23.2501 8.2668 23.1734 8.18553 23.1734 8.08973C23.1734 7.98952 23.2499 7.91288 23.3505 7.91288ZM24.3024 11.9217L23.8335 9.18062H28.1341L27.6652 11.9217C27.6318 12.1274 27.4501 12.2757 27.2444 12.2757H24.7233C24.5175 12.2759 24.3407 12.1274 24.3024 11.9217ZM2.82771 8.47252V2.27278C2.82771 1.52178 3.43996 0.909244 4.19125 0.909244H14.826C15.577 0.909244 16.1895 1.52149 16.1895 2.27278V6.19086L10.7786 6.19064C10.1183 6.19064 9.4869 6.47761 9.05632 6.97999C8.62575 7.48236 8.42975 8.14241 8.52531 8.79785L8.67838 9.83121H4.19118C3.44017 9.83606 2.82787 9.22381 2.82787 8.47253L2.82771 8.47252ZM8.57752 10.745H8.80723L9.0321 12.2759H8.19494L8.57752 10.745ZM4.68831 29.0961H2.98056V15.8013H4.68831V29.0961ZM1.76525 14.8924C1.29636 14.8924 0.908925 14.5097 0.908925 14.0361C0.908925 13.5626 1.29171 13.1798 1.76525 13.1798H9.16141L9.41029 14.8875L1.76548 14.8877L1.76525 14.8924ZM22.2358 19.5043C22.2358 20.1119 21.7431 20.6095 21.1306 20.6095L9.1613 20.6093C8.55367 20.6093 8.0561 20.1166 8.0561 19.5041C8.0561 18.8964 8.54878 18.3989 9.1613 18.3989H10.3142L19.9775 18.3991H21.1305C21.7379 18.3991 22.2354 18.8918 22.2354 19.5043H22.2358ZM10.7068 17.4902L9.42483 8.66867C9.36735 8.27643 9.48231 7.87448 9.74528 7.57802C10.0036 7.27673 10.3815 7.10451 10.7786 7.10451H19.5139C19.911 7.10451 20.2889 7.27674 20.5472 7.57802C20.8056 7.87932 20.9252 8.27643 20.8677 8.66867L19.5857 17.4902H10.7068ZM27.0249 29.0958H25.3171V15.801H27.0249V29.0958ZM28.2402 14.8921H20.8823L21.1312 13.1843H28.2449C28.7138 13.1843 29.1012 13.5671 29.1012 14.0407C29.1012 14.5142 28.7138 14.8921 28.2403 14.8921L28.2402 14.8921Z" fill="black"/>
</svg>
